<?xml version="1.0" encoding="UTF-8" standalone="no"?>
<!DOCTYPE svg PUBLIC "-//W3C//DTD SVG 1.1//EN" "http://www.w3.org/Graphics/SVG/1.1/DTD/svg11.dtd">
<svg version="1.1" xmlns="http://www.w3.org/2000/svg" xmlns:xlink="http://www.w3.org/1999/xlink" preserveAspectRatio="xMidYMid meet" viewBox="0 0 640 640" width="640" height="640"><defs><path d="M122.1 285.16C115.83 279.18 112.7 271.93 112.7 263.38C112.7 262.36 112.7 254.16 112.7 253.14C112.7 230.51 121.1 211.18 137.9 195.17C154.69 179.17 174.97 171.15 198.71 171.15C200.86 171.15 218.06 171.15 220.21 171.15C226.03 171.15 231.07 169.13 235.32 165.07C239.57 161.01 241.71 156.22 241.71 150.66C241.71 146.57 241.71 113.77 241.71 109.67C241.71 104.12 239.57 99.31 235.32 95.25C231.07 91.2 226.03 89.17 220.21 89.17C218.06 89.17 200.86 89.17 198.71 89.17C175.41 89.17 153.19 93.5 132.02 102.14C110.86 110.79 92.55 122.48 77.09 137.21C61.64 151.94 49.38 169.39 40.31 189.57C31.24 209.74 26.71 230.93 26.71 253.14C26.71 275.69 26.71 456.04 26.71 478.58C26.71 495.67 32.97 510.18 45.51 522.14C58.06 534.09 73.29 540.07 91.2 540.07C104.11 540.07 207.32 540.07 220.22 540.07C238.13 540.07 253.36 534.09 265.9 522.14C278.44 510.18 284.71 495.67 284.71 478.58C284.71 466.29 284.71 367.91 284.71 355.61C284.71 338.53 278.44 324.02 265.89 312.06C253.35 300.11 238.12 294.13 220.21 294.13C205.15 294.13 152.48 294.13 144.95 294.13C135.99 294.13 128.38 291.14 122.1 285.16Z" id="fQGOIfEBk"></path><path d="M473.56 294.13C464.6 294.13 456.98 291.14 450.72 285.16C444.44 279.18 441.31 271.93 441.31 263.38C441.31 262.36 441.31 254.16 441.31 253.14C441.31 230.51 449.71 211.18 466.5 195.17C483.29 179.17 503.56 171.15 527.31 171.15C529.47 171.15 546.66 171.15 548.81 171.15C554.63 171.15 559.67 169.13 563.93 165.07C568.18 161.01 570.31 156.22 570.31 150.66C570.31 146.57 570.31 113.77 570.31 109.67C570.31 104.12 568.18 99.31 563.93 95.25C559.67 91.2 554.63 89.17 548.81 89.17C546.66 89.17 529.47 89.17 527.31 89.17C504.01 89.17 481.79 93.5 460.62 102.14C439.45 110.79 421.16 122.48 405.7 137.21C390.24 151.94 377.98 169.39 368.91 189.57C359.84 209.74 355.31 230.93 355.31 253.14C355.31 275.69 355.31 456.04 355.31 478.58C355.31 495.67 361.58 510.18 374.12 522.14C386.65 534.09 401.89 540.07 419.8 540.07C432.7 540.07 535.9 540.07 548.8 540.07C566.72 540.07 581.95 534.09 594.49 522.14C607.03 510.18 613.29 495.67 613.29 478.58C613.29 466.29 613.29 367.91 613.29 355.61C613.3 338.53 607.03 324.02 594.5 312.06C581.96 300.11 566.73 294.13 548.8 294.13C541.29 294.13 481.08 294.13 473.56 294.13Z" id="b3vpqkEUfx"></path></defs><g><g><g><use xlink:href="#fQGOIfEBk" opacity="1" fill="#000000" fill-opacity="0"></use><g><use xlink:href="#fQGOIfEBk" opacity="1" fill-opacity="0" stroke="#000000" stroke-width="40" stroke-opacity="1"></use></g></g><g><use xlink:href="#b3vpqkEUfx" opacity="1" fill="#000000" fill-opacity="0"></use><g><use xlink:href="#b3vpqkEUfx" opacity="1" fill-opacity="0" stroke="#000000" stroke-width="40" stroke-opacity="1"></use></g></g></g></g></svg>