<?xml version="1.0" encoding="UTF-8" standalone="no"?>
<!DOCTYPE svg PUBLIC "-//W3C//DTD SVG 1.1//EN" "http://www.w3.org/Graphics/SVG/1.1/DTD/svg11.dtd">
<svg version="1.1" xmlns="http://www.w3.org/2000/svg" xmlns:xlink="http://www.w3.org/1999/xlink" preserveAspectRatio="xMidYMid meet" viewBox="0 0 640 640" width="640" height="640"><defs><path d="M511.07 349.95C517.16 356.02 520.19 363.41 520.19 372.08C520.19 373.13 520.19 381.45 520.19 382.5C520.19 405.5 512.05 425.14 495.77 441.41C479.51 457.69 459.86 465.83 436.85 465.83C434.77 465.83 418.1 465.83 416.02 465.83C410.38 465.83 405.5 467.89 401.37 472.01C397.26 476.13 395.19 481.01 395.19 486.66C395.19 490.82 395.19 524.16 395.19 528.33C395.19 533.97 397.26 538.85 401.37 542.98C405.5 547.09 410.38 549.16 416.02 549.16C418.1 549.16 434.77 549.16 436.85 549.16C459.44 549.16 480.97 544.76 501.48 535.98C521.98 527.19 539.71 515.31 554.69 500.33C569.67 485.36 581.56 467.62 590.34 447.12C599.13 426.6 603.52 405.07 603.52 382.5C603.52 359.59 603.52 176.26 603.52 153.34C603.52 135.97 597.44 121.22 585.3 109.07C573.14 96.91 558.39 90.84 541.03 90.84C528.53 90.84 428.53 90.84 416.03 90.84C398.67 90.84 383.92 96.91 371.76 109.07C359.61 121.22 353.54 135.97 353.54 153.34C353.54 165.84 353.54 265.83 353.54 278.33C353.53 295.7 359.61 310.45 371.75 322.61C383.91 334.76 398.66 340.84 416.03 340.84C423.31 340.84 481.64 340.84 488.94 340.84C497.62 340.84 505 343.87 511.07 349.95Z" id="i1Rzgjvef"></path><path d="M201.23 372.08C201.23 373.13 201.23 381.45 201.23 382.5C201.23 405.5 193.09 425.14 176.81 441.41C160.53 457.69 140.89 465.83 117.89 465.83C115.81 465.83 99.14 465.83 97.06 465.83C91.42 465.83 86.54 467.89 82.42 472.01C78.29 476.13 76.23 481.01 76.23 486.66C76.23 490.82 76.23 524.16 76.23 528.33C76.23 533.97 78.29 538.85 82.42 542.98C86.54 547.09 91.42 549.16 97.06 549.16C99.14 549.16 115.81 549.16 117.89 549.16C140.46 549.16 161.99 544.76 182.51 535.98C203.01 527.19 220.75 515.31 235.72 500.33C250.7 485.36 262.58 467.62 271.36 447.12C280.16 426.6 284.56 405.07 284.56 382.5C284.56 359.59 284.56 176.26 284.56 153.34C284.56 135.97 278.48 121.22 266.33 109.07C254.17 96.91 239.41 90.84 222.05 90.84C209.55 90.84 109.55 90.84 97.05 90.84C79.69 90.84 64.94 96.91 52.78 109.07C40.64 121.22 34.56 135.97 34.56 153.34C34.56 165.84 34.56 265.83 34.56 278.33C34.56 295.7 40.64 310.45 52.78 322.61C64.94 334.76 79.7 340.84 97.06 340.84C111.64 340.84 162.68 340.84 169.97 340.84C178.65 340.84 186.03 343.87 192.11 349.95C198.19 356.02 201.23 363.41 201.23 372.08Z" id="d2MJISw2Vi"></path></defs><g><g><g><use xlink:href="#i1Rzgjvef" opacity="1" fill="#000000" fill-opacity="0"></use><g><use xlink:href="#i1Rzgjvef" opacity="1" fill-opacity="0" stroke="#000000" stroke-width="40" stroke-opacity="1"></use></g></g><g><use xlink:href="#d2MJISw2Vi" opacity="1" fill="#000000" fill-opacity="0"></use><g><use xlink:href="#d2MJISw2Vi" opacity="1" fill-opacity="0" stroke="#000000" stroke-width="40" stroke-opacity="1"></use></g></g></g></g></svg>